# xmcd
#
# Track frame offsets: 
#        150
#        17738
#        35100
#        53918
#        71483
#        88118
#        110725
#        125667
#        146275
#        166263
#        183844
#        202442
#        223932
#        243114
#        262119
#        282913
#        302362
#
# Disc length: 4159 seconds
#
# Revision: 0
# Processed by: cddbd v1.5.1PL0 Copyright (c) Steve Scherf et al.
# Submitted via: ExactAudioCopy v0.95a5
#
DISCID=04103d11
DTITLE=Various Artist - Absolute Relaxed Vol. 2 Disc 1
DYEAR=2003
DGENRE=Ambient
TTITLE0=Enigma - Mea Culpa
TTITLE1=Deep Forest - Sweet Lullaby
TTITLE2=Groove Armada - At The River
TTITLE3=Gregorian Chan - Voyage Voyage
TTITLE4=Sacred Spi - Tor Cheney Nahana
TTITLE5=Adimus - Karl - Song Of Tears
TTITLE6=Love Ltd - Now We Are Free
TTITLE7=Lisa Simone - Elements
TTITLE8=Cacioppo - Merry Christmas Mr Lawrence
TTITLE9=Für Elise
TTITLE10=The Dolphin (Cape Town)
TTITLE11=Slip Into Something More Comfo
TTITLE12=Opera Delight
TTITLE13=Alla Luca Del Sole
TTITLE14=A Thousand Stars
TTITLE15=18
TTITLE16=O Mio Babbino Caro
EXTD=
EXTT0=
EXTT1=
EXTT2=
EXTT3=
EXTT4=
EXTT5=
EXTT6=
EXTT7=
EXTT8=
EXTT9=
EXTT10=
EXTT11=
EXTT12=
EXTT13=
EXTT14=
EXTT15=
EXTT16=
PLAYORDER=
